<svg width="70" height="13" viewBox="0 0 70 13" fill="none" xmlns="http://www.w3.org/2000/svg">
<path fill-rule="evenodd" clip-rule="evenodd" d="M10.6729 0.956787C9.08188 3.28329 5.07047 9.12328 5.07047 9.12328L0.197368 2.16158C0.197368 2.16158 -0.24671 1.51764 0.197368 0.787641C0.197368 0.787641 0.344414 0.464186 0.726733 0.229755C0.912011 0.116991 1.15611 0.0249993 1.4649 0.00125947C1.4649 0.00125947 1.86781 -0.0313828 2.50011 0.23569C2.50011 0.23569 5.54395 1.48203 10.6729 0.956787Z" fill="#FFDD00"/>
<path fill-rule="evenodd" clip-rule="evenodd" d="M15.3283 0.0129733C15.3283 0.0129733 15.5401 0.0159408 15.7989 0.0990302C16.0871 0.191022 16.4106 0.377973 16.5959 0.784517C16.5959 0.784517 16.9547 1.44923 16.4988 2.15846L9.67 12.2627C9.67 12.2627 9.26121 12.9274 8.48775 12.9987C8.48775 12.9987 7.73782 13.0817 7.23198 12.1648L5.02924 9.06378C5.02924 9.06378 9.04947 3.2861 10.6699 0.956631C10.6699 0.956631 13.1079 0.618339 14.7401 0.119802C14.7401 0.119802 15.1313 -0.00186405 15.3283 0.0129733Z" fill="#73CBF2"/>
<path fill-rule="evenodd" clip-rule="evenodd" d="M8.43787 13.0003H3.30597C3.12363 12.9914 2.97953 12.8964 2.97953 12.8964C2.64721 12.564 2.87071 12.208 2.87071 12.208C2.87071 12.208 4.32647 10.0803 5.02641 9.06836L7.635 12.6175C7.63794 12.6175 7.88204 12.9884 8.43787 13.0003Z" fill="#F27264"/>
<path d="M23.9335 8.86814L21.3749 3.27148H20.1162L23.3306 10.2065L23.1601 10.5893C22.7954 11.4142 22.3131 11.8119 21.6867 11.8119C21.3661 11.8119 20.9897 11.7347 20.725 11.6131L20.3074 11.4202V12.6428L20.5074 12.711C20.9073 12.8446 21.3632 12.9277 21.722 12.9277C23.4218 12.9277 24.0864 11.3638 24.3688 10.6961L27.4861 3.27445H26.251L23.9335 8.86814Z" fill="#231F20"/>
<path d="M31.0094 3.13867C29.0125 3.13867 27.5068 4.66396 27.5068 6.68777C27.5068 8.70269 29.0008 10.222 30.9829 10.222C32.3152 10.222 33.5298 9.52171 34.0827 8.43562L34.2209 8.16558L33.2327 7.68188L33.1004 7.93411C32.7063 8.68489 31.9034 9.14781 31.0094 9.14781C29.8507 9.14781 28.9243 8.36737 28.7037 7.24863H34.3091L34.3503 7.00233C34.3679 6.8955 34.3797 6.71448 34.3797 6.56611C34.3826 4.58087 32.9651 3.13867 31.0094 3.13867ZM28.6831 6.19221C28.8743 5.04379 29.8213 4.2129 30.9976 4.2129C32.1564 4.2129 33.0533 5.02895 33.2239 6.19221H28.6831Z" fill="#231F20"/>
<path d="M36.653 0.15625H35.5237V10.0884H36.653V0.15625Z" fill="#231F20"/>
<path d="M39.4674 0.15625H38.3381V10.0884H39.4674V0.15625Z" fill="#231F20"/>
<path d="M44.1112 3.12695C42.1143 3.12695 40.6085 4.65817 40.6085 6.68792C40.6085 8.70284 42.1143 10.2222 44.1112 10.2222C46.1169 10.2222 47.6285 8.70284 47.6285 6.68792C47.6285 4.65817 46.1169 3.12695 44.1112 3.12695ZM46.4845 6.68792C46.4845 8.0767 45.4699 9.12126 44.1229 9.12126C42.7701 9.12126 41.7496 8.07374 41.7496 6.68792C41.7496 5.29321 42.7701 4.23976 44.1229 4.23976C45.4699 4.23976 46.4845 5.29321 46.4845 6.68792Z" fill="#231F20"/>
<path d="M57.0335 3.27148L55.1778 8.19156L53.4838 3.27148H52.5515L50.8576 8.19453L48.9872 3.27148H47.7461L50.4223 10.0878H51.334L53.0221 5.17364L54.6896 10.0878H55.6013L58.2775 3.27148H57.0335Z" fill="#231F20"/>
<path d="M58.7451 8.70898C58.3127 8.70898 57.9628 9.05618 57.9628 9.48646C57.9628 9.92862 58.298 10.2639 58.7451 10.2639C59.1685 10.2639 59.5009 9.92268 59.5009 9.48646C59.5009 9.05915 59.1597 8.70898 58.7451 8.70898Z" fill="#231F20"/>
<path d="M65.8297 4.12387C65.2239 3.49477 64.3916 3.13867 63.4711 3.13867C61.5419 3.13867 60.0861 4.66396 60.0861 6.68777C60.0861 8.70269 61.536 10.222 63.4564 10.222C64.3799 10.222 65.218 9.86001 65.8297 9.222V10.0885H66.959V3.27221H65.8297V4.12387ZM65.818 6.64623C65.818 8.05578 64.8269 9.1211 63.5093 9.1211C62.2183 9.1211 61.2419 8.07359 61.2419 6.68777C61.2419 5.29306 62.2212 4.23961 63.5211 4.23961C64.8328 4.23961 65.818 5.27525 65.818 6.64623Z" fill="#231F20"/>
<path d="M69.7766 3.27148H68.6326V10.0878H69.7766V3.27148Z" fill="#231F20"/>
<path d="M70 1.87724C70 1.43509 69.6441 1.08789 69.1912 1.08789C68.7442 1.08789 68.3942 1.43509 68.3942 1.87724C68.3942 2.33423 68.7442 2.6933 69.1912 2.6933C69.65 2.6933 70 2.34313 70 1.87724Z" fill="#231F20"/>
</svg>
